<svg xmlns="http://www.w3.org/2000/svg" xmlns:xlink="http://www.w3.org/1999/xlink" width="1080" zoomAndPan="magnify" viewBox="0 0 810 809.999993" height="1080" preserveAspectRatio="xMidYMid meet" version="1.2"><g id="357506d259"><path style=" stroke:none;fill-rule:nonzero;fill:#000000;fill-opacity:1;" d="M 386.839844 207.496094 C 347.882812 212.214844 313.28125 226.011719 282.257812 249.171875 C 271.394531 257.320312 250.875 277.765625 242.726562 288.703125 C 225.214844 312.078125 211.632812 340.242188 205.484375 366.265625 C 197.40625 400.003906 197.191406 436.746094 204.769531 468.488281 C 211.417969 496.507812 225.140625 524.816406 244.230469 549.980469 C 251.878906 560.128906 272.109375 580.074219 282.542969 587.9375 C 312.710938 610.527344 345.59375 624.035156 385.125 630.183594 C 396.703125 631.972656 426.800781 631.972656 439.453125 630.183594 C 473.550781 625.324219 501.214844 614.886719 530.238281 595.800781 C 577.273438 564.847656 611.660156 513.09375 622.09375 457.550781 C 630.746094 411.515625 623.238281 360.617188 601.792969 319.800781 C 586.351562 290.347656 564.121094 264.898438 537.386719 245.8125 C 510.578125 226.726562 478.410156 213.714844 445.457031 208.570312 C 432.804688 206.640625 399.351562 205.996094 386.839844 207.496094 Z M 440.453125 225.726562 C 464.757812 229.65625 482.558594 235.375 504.003906 246.3125 C 553.613281 271.617188 591.355469 320.226562 603.4375 374.484375 C 611.730469 411.726562 610.085938 446.96875 598.433594 480.425781 C 589.570312 505.875 577.558594 527.03125 560.976562 546.40625 C 529.523438 583.003906 487.5625 605.664062 437.59375 612.957031 C 425.585938 614.742188 398.636719 614.742188 387.269531 613.027344 C 331.941406 604.449219 286.546875 578 254.664062 535.683594 C 247.015625 525.53125 242.726562 518.527344 236.722656 506.660156 C 226.570312 486.359375 220.710938 468.273438 216.992188 445.613281 C 215.777344 437.820312 215.777344 403.652344 216.992188 394.5 C 225.429688 334.523438 257.023438 284.628906 306.707031 253.175781 C 315.5 247.671875 332.726562 239.09375 342.589844 235.449219 C 355.886719 230.515625 375.6875 226.226562 393.703125 224.367188 C 403.925781 223.296875 429.945312 224.082031 440.453125 225.726562 Z M 440.453125 225.726562 "/><path style=" stroke:none;fill-rule:nonzero;fill:#000000;fill-opacity:1;" d="M 481.984375 272.332031 C 471.40625 273.691406 459.46875 277.550781 452.675781 281.914062 C 448.171875 284.773438 442.242188 291.207031 440.097656 295.636719 C 437.664062 300.5 437.664062 310.792969 440.097656 316.726562 C 443.742188 326.019531 451.390625 333.597656 462.683594 339.101562 C 495.566406 355.113281 539.601562 343.316406 548.753906 316.011719 C 550.753906 310.148438 550.753906 302.929688 548.753906 297.640625 C 545.964844 290.277344 536.742188 282.199219 525.589844 277.480469 C 514.011719 272.546875 496.570312 270.546875 481.984375 272.332031 Z M 509.078125 287.273438 C 511.652344 288.132812 513.796875 288.917969 513.796875 289.132812 C 513.796875 289.347656 512.796875 290.992188 511.582031 292.777344 C 509.722656 295.421875 509.078125 295.921875 507.792969 295.496094 C 507.003906 295.207031 504.144531 294.851562 501.574219 294.636719 C 497.855469 294.351562 496.140625 294.566406 493.566406 295.710938 C 490.777344 296.925781 487.703125 299.855469 487.132812 301.855469 C 487.0625 302.214844 490.0625 302.5 493.78125 302.429688 C 497.496094 302.429688 501.429688 302.570312 502.429688 302.785156 C 504.21875 303.144531 504.289062 303.214844 503.574219 305.929688 L 502.929688 308.71875 L 485.203125 308.71875 L 485.203125 314.4375 L 502.929688 314.4375 L 504.359375 320.15625 L 486.5625 320.15625 L 487.703125 322.300781 C 490.492188 327.664062 499.214844 330.164062 506.363281 327.734375 C 508.21875 327.089844 509.792969 326.660156 509.792969 326.804688 C 509.863281 326.875 510.9375 328.378906 512.296875 330.09375 C 514.226562 332.523438 514.511719 333.308594 513.726562 333.808594 C 511.792969 335.097656 505.503906 336.742188 501.214844 337.097656 C 490.921875 338.027344 480.269531 331.523438 477.339844 322.585938 C 476.554688 320.226562 476.339844 320.15625 472.980469 320.15625 L 469.476562 320.15625 L 469.476562 317.65625 C 469.476562 314.222656 469.546875 314.152344 472.191406 314.367188 C 474.410156 314.507812 474.480469 314.507812 474.480469 311.648438 L 474.480469 308.71875 L 468.761719 308.71875 L 468.761719 302.144531 L 472.691406 302.429688 C 476.410156 302.644531 476.625 302.570312 477.269531 300.714844 C 477.695312 299.640625 478.984375 297.28125 480.199219 295.496094 C 486.058594 286.988281 497.570312 283.769531 509.078125 287.273438 Z M 509.078125 287.273438 "/><path style=" stroke:none;fill-rule:nonzero;fill:#000000;fill-opacity:1;" d="M 359.390625 282.699219 C 355.03125 284.273438 349.097656 288.273438 346.453125 291.492188 C 345.308594 292.921875 343.304688 296.136719 342.019531 298.710938 C 339.875 303.070312 339.730469 303.785156 339.730469 311.222656 C 339.804688 321.230469 341.304688 325.445312 347.09375 331.664062 C 353.957031 339.101562 363.964844 342.746094 372.757812 341.03125 C 382.550781 339.027344 390.34375 332.953125 394.632812 323.875 C 396.777344 319.371094 396.917969 318.585938 396.917969 311.148438 C 396.917969 303.5 396.847656 303.144531 394.203125 297.855469 C 391.128906 291.492188 386.195312 286.628906 380.121094 283.769531 C 375.117188 281.414062 364.535156 280.839844 359.390625 282.699219 Z M 359.390625 282.699219 "/><path style=" stroke:none;fill-rule:nonzero;fill:#000000;fill-opacity:1;" d="M 283.472656 297.496094 C 276.109375 300.285156 271.605469 304.429688 268.03125 311.578125 C 266.316406 315.011719 266.101562 316.367188 266.101562 322.300781 C 266.101562 328.449219 266.316406 329.519531 268.320312 333.738281 C 270.964844 339.316406 275.394531 343.816406 280.757812 346.464844 C 284.117188 348.105469 285.617188 348.394531 290.765625 348.394531 C 295.839844 348.394531 297.484375 348.105469 300.84375 346.535156 C 306.207031 343.960938 310.136719 340.316406 312.710938 335.382812 C 315.425781 330.164062 315.925781 328.234375 315.855469 321.871094 C 315.855469 315.011719 313.78125 309.792969 309.28125 304.789062 C 304.277344 299.355469 299.34375 297.066406 291.910156 296.78125 C 288.191406 296.636719 285.1875 296.925781 283.472656 297.496094 Z M 283.472656 297.496094 "/><path style=" stroke:none;fill-rule:nonzero;fill:#000000;fill-opacity:1;" d="M 549.253906 330.449219 C 548.464844 332.023438 545.464844 335.8125 542.460938 338.742188 C 535.957031 345.246094 527.378906 349.824219 516.296875 352.824219 C 509.863281 354.539062 507.863281 354.683594 495.925781 354.753906 C 482.058594 354.828125 478.699219 354.398438 468.476562 351.179688 C 455.535156 347.105469 444.886719 339.527344 439.808594 330.878906 L 437.878906 327.664062 L 438.238281 336.597656 C 438.453125 342.460938 438.953125 346.464844 439.667969 348.25 C 445.027344 361.046875 462.613281 370.480469 485.988281 373.054688 C 513.011719 376.058594 541.390625 365.476562 548.609375 349.679688 C 550.253906 346.175781 550.609375 344.246094 550.824219 337.671875 C 551.183594 327.664062 550.96875 326.660156 549.253906 330.449219 Z M 549.253906 330.449219 "/><path style=" stroke:none;fill-rule:nonzero;fill:#000000;fill-opacity:1;" d="M 336.15625 347.894531 C 327.867188 350.824219 322.21875 355.683594 318.859375 362.90625 C 316.429688 368.121094 315.855469 375.773438 315.785156 403.9375 L 315.785156 427.3125 L 321.71875 429.3125 C 326.792969 431.027344 328.722656 431.242188 336.15625 431.316406 C 341.804688 431.316406 346.808594 430.886719 350.8125 430.027344 C 359.675781 428.097656 377.832031 422.738281 386.484375 419.449219 C 400.992188 413.871094 401.707031 413.660156 410.5 413.015625 C 415.21875 412.730469 419.652344 412.371094 420.367188 412.371094 C 421.511719 412.371094 421.582031 411.011719 421.582031 393.929688 C 421.582031 383.847656 421.296875 373.699219 420.867188 371.339844 C 419.292969 361.546875 413.21875 353.324219 404.566406 349.25 L 399.777344 346.964844 L 369.753906 346.820312 C 342.664062 346.605469 339.375 346.75 336.15625 347.894531 Z M 336.15625 347.894531 "/><path style=" stroke:none;fill-rule:nonzero;fill:#000000;fill-opacity:1;" d="M 270.964844 355.183594 C 262.816406 356.828125 255.238281 362.90625 251.589844 370.769531 C 249.019531 376.414062 248.804688 380.203125 248.660156 439.964844 C 248.589844 480.28125 248.730469 490.933594 249.445312 491.578125 C 249.949219 491.933594 263.316406 497.222656 279.183594 503.226562 L 307.992188 514.09375 L 309.136719 512.378906 C 311.210938 509.375 315.140625 506.015625 318.929688 504.015625 C 322.003906 502.441406 323.503906 502.15625 328.292969 502.085938 C 335.226562 502.085938 340.160156 504.085938 344.949219 508.875 L 347.953125 511.949219 L 351.167969 511.019531 C 360.890625 508.304688 372.257812 513.234375 375.257812 521.457031 C 375.972656 523.601562 376.332031 523.746094 380.621094 524.101562 C 391.273438 525.101562 398.347656 531.820312 399.207031 541.902344 C 399.5625 545.332031 399.851562 546.046875 400.992188 546.046875 C 403.28125 546.046875 407.570312 548.621094 410.285156 551.625 C 412.144531 553.695312 413.074219 555.625 413.71875 558.414062 C 415.003906 564.632812 413.648438 569.496094 408.644531 576.855469 C 407.140625 579.144531 405.855469 581.433594 405.855469 582.003906 C 405.855469 583.21875 412.21875 588.652344 414.863281 589.722656 C 417.507812 590.726562 419.578125 590.082031 422.652344 587.4375 C 426.15625 584.363281 426.085938 581.789062 422.296875 578.144531 C 420.722656 576.644531 419.292969 574.570312 419.007812 573.570312 C 418.4375 571.210938 419.722656 568.207031 421.296875 568.207031 C 421.9375 568.207031 425.085938 570.421875 428.300781 573.070312 C 436.164062 579.644531 438.023438 580.933594 440.597656 581.71875 C 445.3125 583.078125 451.605469 578.074219 451.605469 572.925781 C 451.605469 570.210938 449.390625 568.066406 428.515625 551.195312 C 419.152344 543.617188 411.144531 536.613281 410.714844 535.683594 C 410.074219 534.324219 410.214844 533.609375 411.144531 532.109375 C 413.003906 529.25 415.578125 529.75 420.9375 534.039062 C 423.441406 536.039062 433.804688 544.476562 443.957031 552.695312 C 454.105469 560.84375 463.328125 567.921875 464.472656 568.351562 C 471.335938 570.710938 479.554688 560.703125 475.265625 555.199219 C 474.410156 554.125 466.402344 547.335938 457.464844 540.042969 C 430.515625 518.097656 428.515625 516.453125 427.015625 514.378906 C 425.65625 512.519531 425.65625 512.234375 426.65625 510.449219 C 427.371094 509.089844 428.371094 508.445312 429.945312 508.304688 C 431.945312 508.089844 434.734375 510.089844 455.535156 526.890625 C 468.332031 537.253906 480.199219 546.546875 481.84375 547.621094 C 485.488281 550.121094 488.777344 550.195312 492.707031 547.835938 C 498.070312 544.761719 499.714844 537.683594 496.425781 532.25 C 494.636719 529.25 494.566406 529.25 469.476562 509.019531 C 459.46875 500.871094 443.742188 488.214844 434.589844 480.855469 C 425.511719 473.417969 416.933594 466.769531 415.648438 465.984375 C 412.933594 464.269531 408.070312 464.125 405.140625 465.628906 C 404.066406 466.199219 400.277344 469.058594 396.777344 472.0625 C 389.269531 478.421875 380.261719 483.285156 372.6875 484.929688 C 365.894531 486.429688 359.675781 485.570312 353.457031 482.210938 C 346.09375 478.351562 343.089844 472.847656 343.878906 464.554688 C 344.378906 458.695312 347.09375 454.117188 354.742188 446.113281 C 360.535156 440.035156 360.960938 439.394531 359.03125 439.820312 C 344.878906 442.753906 330.9375 441.964844 321.644531 437.75 C 319.429688 436.746094 313.996094 433.746094 309.566406 431.171875 L 301.488281 426.453125 L 301.917969 396.359375 C 302.132812 379.847656 302.632812 364.835938 302.988281 363.046875 C 303.417969 361.261719 304.347656 358.757812 305.132812 357.472656 C 305.847656 356.183594 306.492188 354.96875 306.492188 354.753906 C 306.492188 354.183594 274.039062 354.613281 270.964844 355.183594 Z M 270.964844 355.183594 "/><path style=" stroke:none;fill-rule:nonzero;fill:#000000;fill-opacity:1;" d="M 438.164062 365.621094 C 438.453125 372.984375 438.808594 374.84375 440.382812 378.34375 C 444.027344 386.28125 452.675781 392.855469 465.042969 397.074219 C 475.839844 400.792969 484.128906 401.863281 498.070312 401.433594 C 516.226562 400.863281 528.664062 397.144531 539.316406 389.28125 C 547.609375 383.132812 551.039062 375.414062 550.898438 363.40625 C 550.824219 357.042969 550.824219 356.972656 549.753906 359.472656 C 549.179688 360.832031 546.464844 364.121094 543.820312 366.765625 C 539.960938 370.554688 537.316406 372.339844 531.523438 375.128906 C 518.65625 381.347656 507.148438 383.492188 490.921875 382.847656 C 479.914062 382.347656 473.265625 381.0625 464.328125 377.773438 C 453.605469 373.699219 444.527344 367.195312 439.953125 360.1875 L 437.878906 356.972656 Z M 438.164062 365.621094 "/><path style=" stroke:none;fill-rule:nonzero;fill:#000000;fill-opacity:1;" d="M 537.742188 420.378906 C 510.363281 433.101562 498.210938 438.464844 495.925781 438.679688 C 493.28125 438.890625 488.417969 437.535156 468.046875 430.957031 L 443.382812 422.953125 L 422.296875 423.238281 C 401.351562 423.59375 401.207031 423.59375 397.632812 425.382812 C 385.980469 431.386719 356.386719 457.191406 353.957031 463.554688 C 352.527344 467.273438 353.027344 470.847656 355.316406 472.992188 C 357.746094 475.207031 363.894531 476.992188 367.898438 476.492188 C 375.972656 475.5625 382.195312 472.277344 394.132812 462.695312 C 402.066406 456.335938 405.570312 454.617188 410.929688 454.546875 C 418.722656 454.546875 423.796875 457.980469 464.472656 490.503906 C 492.566406 513.023438 494.996094 515.023438 501.070312 520.957031 C 505.359375 525.101562 506.003906 525.53125 507.503906 524.816406 C 508.433594 524.386719 513.222656 520.527344 518.15625 516.238281 L 527.234375 508.519531 L 559.117188 498.222656 C 576.703125 492.503906 591.355469 487.5 591.714844 487.074219 C 592.214844 486.429688 590.140625 472.992188 585.28125 444.824219 C 581.277344 422.164062 577.917969 403.292969 577.703125 402.9375 C 577.488281 402.648438 577.132812 402.363281 576.84375 402.363281 C 576.558594 402.433594 558.972656 410.511719 537.742188 420.378906 Z M 537.742188 420.378906 "/><path style=" stroke:none;fill-rule:nonzero;fill:#000000;fill-opacity:1;" d="M 324.503906 513.234375 C 320.859375 515.023438 313.425781 523.457031 311.351562 528.105469 C 308.777344 533.679688 311.136719 539.328125 317 541.902344 C 320.074219 543.257812 321.074219 543.1875 325.363281 541.617188 C 328.007812 540.542969 339.089844 527.320312 339.660156 524.460938 C 340.589844 519.667969 337.515625 514.308594 332.726562 512.519531 C 329.796875 511.378906 327.9375 511.519531 324.503906 513.234375 Z M 324.503906 513.234375 "/><path style=" stroke:none;fill-rule:nonzero;fill:#000000;fill-opacity:1;" d="M 352.957031 521.171875 C 350.382812 522.457031 348.023438 525.03125 341.304688 533.894531 C 332.65625 545.332031 331.011719 548.621094 331.867188 552.910156 C 332.726562 557.699219 337.945312 561.773438 343.019531 561.773438 C 347.667969 561.773438 350.027344 559.84375 357.816406 549.335938 C 361.890625 543.761719 365.894531 537.96875 366.753906 536.398438 C 371.972656 526.316406 362.75 516.167969 352.957031 521.171875 Z M 352.957031 521.171875 "/><path style=" stroke:none;fill-rule:nonzero;fill:#000000;fill-opacity:1;" d="M 378.621094 534.539062 C 377.617188 534.894531 376.117188 535.539062 375.257812 535.96875 C 373.257812 537.039062 356.671875 558.984375 355.671875 561.84375 C 354.816406 564.417969 355.316406 568.421875 356.886719 570.78125 C 358.246094 572.855469 362.964844 575.355469 365.539062 575.355469 C 370.253906 575.355469 373.257812 572.855469 380.976562 562.488281 C 390.128906 550.050781 390.84375 548.765625 390.84375 544.117188 C 390.84375 540.972656 390.484375 539.972656 388.628906 537.898438 C 387.410156 536.46875 385.265625 535.039062 383.835938 534.609375 C 380.90625 533.824219 381.121094 533.824219 378.621094 534.539062 Z M 378.621094 534.539062 "/><path style=" stroke:none;fill-rule:nonzero;fill:#000000;fill-opacity:1;" d="M 393.488281 557.199219 C 391.414062 558.34375 381.191406 571.496094 379.976562 574.640625 C 378.832031 577.570312 379.90625 580.789062 382.835938 583.21875 C 387.839844 587.367188 393.917969 585.722656 399.351562 578.714844 C 405.855469 570.351562 406.570312 568.992188 406.570312 564.777344 C 406.570312 561.34375 406.285156 560.628906 404.140625 558.484375 C 402.136719 556.484375 401.207031 556.054688 398.636719 556.054688 C 396.917969 556.125 394.558594 556.628906 393.488281 557.199219 Z M 393.488281 557.199219 "/></g></svg>