<?xml version="1.0" standalone="no"?>
<!DOCTYPE svg PUBLIC "-//W3C//DTD SVG 20010904//EN"
 "http://www.w3.org/TR/2001/REC-SVG-20010904/DTD/svg10.dtd">
<svg version="1.0" xmlns="http://www.w3.org/2000/svg"
 width="1024.000000pt" height="1024.000000pt" viewBox="0 0 1024.000000 1024.000000"
 preserveAspectRatio="xMidYMid meet">

<g transform="translate(0.000000,1024.000000) scale(0.100000,-0.100000)"
fill="#000000" stroke="none">
<path d="M4774 9096 c-545 -66 -1029 -259 -1463 -583 -152 -114 -439 -400
-553 -553 -245 -327 -435 -721 -521 -1085 -113 -472 -116 -986 -10 -1430 93
-392 285 -788 552 -1140 107 -142 390 -421 536 -531 422 -316 882 -505 1435
-591 162 -25 583 -25 760 0 477 68 864 214 1270 481 658 433 1139 1157 1285
1934 121 644 16 1356 -284 1927 -216 412 -527 768 -901 1035 -375 267 -825
449 -1286 521 -177 27 -645 36 -820 15z m750 -255 c340 -55 589 -135 889 -288
694 -354 1222 -1034 1391 -1793 116 -521 93 -1014 -70 -1482 -124 -356 -292
-652 -524 -923 -440 -512 -1027 -829 -1726 -931 -168 -25 -545 -25 -704 -1
-774 120 -1409 490 -1855 1082 -107 142 -167 240 -251 406 -142 284 -224 537
-276 854 -17 109 -17 587 0 715 118 839 560 1537 1255 1977 123 77 364 197
502 248 186 69 463 129 715 155 143 15 507 4 654 -19z"/>
<path d="M6105 8189 c-148 -19 -315 -73 -410 -134 -63 -40 -146 -130 -176
-192 -34 -68 -34 -212 0 -295 51 -130 158 -236 316 -313 460 -224 1076 -59
1204 323 28 82 28 183 0 257 -39 103 -168 216 -324 282 -162 69 -406 97 -610
72z m379 -209 c36 -12 66 -23 66 -26 0 -3 -14 -26 -31 -51 -26 -37 -35 -44
-53 -38 -11 4 -51 9 -87 12 -52 4 -76 1 -112 -15 -39 -17 -82 -58 -90 -86 -1
-5 41 -9 93 -8 52 0 107 -2 121 -5 25 -5 26 -6 16 -44 l-9 -39 -124 0 -124 0
0 -40 0 -40 124 0 124 0 10 -40 10 -40 -124 0 -125 0 16 -30 c39 -75 161 -110
261 -76 26 9 48 15 48 13 1 -1 16 -22 35 -46 27 -34 31 -45 20 -52 -27 -18
-115 -41 -175 -46 -144 -13 -293 78 -334 203 -11 33 -14 34 -61 34 l-49 0 0
35 c0 48 1 49 38 46 31 -2 32 -2 32 38 l0 41 -40 0 -40 0 0 46 0 46 55 -4 c52
-3 55 -2 64 24 6 15 24 48 41 73 82 119 243 164 404 115z"/>
<path d="M4390 8044 c-61 -22 -144 -78 -181 -123 -16 -20 -44 -65 -62 -101
-30 -61 -32 -71 -32 -175 1 -140 22 -199 103 -286 96 -104 236 -155 359 -131
137 28 246 113 306 240 30 63 32 74 32 178 0 107 -1 112 -38 186 -43 89 -112
157 -197 197 -70 33 -218 41 -290 15z"/>
<path d="M3328 7837 c-103 -39 -166 -97 -216 -197 -24 -48 -27 -67 -27 -150 0
-86 3 -101 31 -160 37 -78 99 -141 174 -178 47 -23 68 -27 140 -27 71 0 94 4
141 26 75 36 130 87 166 156 38 73 45 100 44 189 0 96 -29 169 -92 239 -70 76
-139 108 -243 112 -52 2 -94 -2 -118 -10z"/>
<path d="M7046 7376 c-11 -22 -53 -75 -95 -116 -91 -91 -211 -155 -366 -197
-90 -24 -118 -26 -285 -27 -194 -1 -241 5 -384 50 -181 57 -330 163 -401 284
l-27 45 5 -125 c3 -82 10 -138 20 -163 75 -179 321 -311 648 -347 378 -42 775
106 876 327 23 49 28 76 31 168 5 140 2 154 -22 101z"/>
<path d="M4065 7132 c-116 -41 -195 -109 -242 -210 -34 -73 -42 -180 -43 -574
l0 -327 83 -28 c71 -24 98 -27 202 -28 79 0 149 6 205 18 124 27 378 102 499
148 203 78 213 81 336 90 66 4 128 9 138 9 16 0 17 19 17 258 0 141 -4 283
-10 316 -22 137 -107 252 -228 309 l-67 32 -420 2 c-379 3 -425 1 -470 -15z"/>
<path d="M3153 7030 c-114 -23 -220 -108 -271 -218 -36 -79 -39 -132 -41 -968
-1 -564 1 -713 11 -722 7 -5 194 -79 416 -163 l403 -152 16 24 c29 42 84 89
137 117 43 22 64 26 131 27 97 0 166 -28 233 -95 l42 -43 45 13 c136 38 295
-31 337 -146 10 -30 15 -32 75 -37 149 -14 248 -108 260 -249 5 -48 9 -58 25
-58 32 0 92 -36 130 -78 26 -29 39 -56 48 -95 18 -87 -1 -155 -71 -258 -21
-32 -39 -64 -39 -72 0 -17 89 -93 126 -108 37 -14 66 -5 109 32 49 43 48 79
-5 130 -22 21 -42 50 -46 64 -8 33 10 75 32 75 9 0 53 -31 98 -68 110 -92 136
-110 172 -121 66 -19 154 51 154 123 0 38 -31 68 -323 304 -131 106 -243 204
-249 217 -9 19 -7 29 6 50 26 40 62 33 137 -27 35 -28 180 -146 322 -261 142
-114 271 -213 287 -219 96 -33 211 107 151 184 -12 15 -124 110 -249 212 -377
307 -405 330 -426 359 -19 26 -19 30 -5 55 10 19 24 28 46 30 28 3 67 -25 358
-260 179 -145 345 -275 368 -290 51 -35 97 -36 152 -3 75 43 98 142 52 218
-25 42 -26 42 -377 325 -140 114 -360 291 -488 394 -127 104 -247 197 -265
208 -38 24 -106 26 -147 5 -15 -8 -68 -48 -117 -90 -105 -89 -231 -157 -337
-180 -95 -21 -182 -9 -269 38 -103 54 -145 131 -134 247 7 82 45 146 152 258
81 85 87 94 60 88 -198 -41 -393 -30 -523 29 -31 14 -107 56 -169 92 l-113 66
6 421 c3 231 10 441 15 466 6 25 19 60 30 78 10 18 19 35 19 38 0 8 -454 2
-497 -6z"/>
<path d="M5492 6884 c4 -103 9 -129 31 -178 51 -111 172 -203 345 -262 151
-52 267 -67 462 -61 254 8 428 60 577 170 116 86 164 194 162 362 -1 89 -1 90
-16 55 -8 -19 -46 -65 -83 -102 -54 -53 -91 -78 -172 -117 -180 -87 -341 -117
-568 -108 -154 7 -247 25 -372 71 -150 57 -277 148 -341 246 l-29 45 4 -121z"/>
<path d="M6885 6118 c-383 -178 -553 -253 -585 -256 -37 -3 -105 16 -390 108
l-345 112 -295 -4 c-293 -5 -295 -5 -345 -30 -163 -84 -577 -445 -611 -534
-20 -52 -13 -102 19 -132 34 -31 120 -56 176 -49 113 13 200 59 367 193 111
89 160 113 235 114 109 0 180 -48 749 -503 393 -315 427 -343 512 -426 60 -58
69 -64 90 -54 13 6 80 60 149 120 l127 108 446 144 c246 80 451 150 456 156 7
9 -22 197 -90 591 -56 317 -103 581 -106 586 -3 4 -8 8 -12 8 -4 -1 -250 -114
-547 -252z"/>
<path d="M3902 4819 c-51 -25 -155 -143 -184 -208 -36 -78 -3 -157 79 -193 43
-19 57 -18 117 4 37 15 192 200 200 240 13 67 -30 142 -97 167 -41 16 -67 14
-115 -10z"/>
<path d="M4300 4708 c-36 -18 -69 -54 -163 -178 -121 -160 -144 -206 -132
-266 12 -67 85 -124 156 -124 65 0 98 27 207 174 57 78 113 159 125 181 73
141 -56 283 -193 213z"/>
<path d="M4659 4521 c-14 -5 -35 -14 -47 -20 -28 -15 -260 -322 -274 -362 -12
-36 -5 -92 17 -125 19 -29 85 -64 121 -64 66 0 108 35 216 180 128 174 138
192 138 257 0 44 -5 58 -31 87 -17 20 -47 40 -67 46 -41 11 -38 11 -73 1z"/>
<path d="M4867 4204 c-29 -16 -172 -200 -189 -244 -16 -41 -1 -86 40 -120 70
-58 155 -35 231 63 91 117 101 136 101 195 0 48 -4 58 -34 88 -28 28 -41 34
-77 34 -24 -1 -57 -8 -72 -16z"/>
<path d="M4910 2978 c-12 -29 -29 -61 -38 -70 -14 -17 -9 -18 89 -17 l104 1
64 69 64 69 -130 0 -131 0 -22 -52z"/>
<path d="M3079 2836 c-272 -78 -405 -360 -300 -636 41 -108 144 -209 259 -253
168 -66 383 -23 504 100 l48 49 -69 68 -70 69 -46 -41 c-106 -93 -260 -98
-359 -11 -90 79 -115 219 -59 328 80 156 275 189 422 72 l38 -30 67 68 67 67
-51 48 c-28 26 -81 62 -118 79 -61 29 -77 32 -177 34 -68 1 -128 -3 -156 -11z"/>
<path d="M3720 2386 l0 -456 105 0 105 0 0 150 0 151 72 -3 72 -3 90 -147 89
-148 129 0 c101 0 128 3 122 13 -4 6 -52 78 -106 159 -54 81 -98 151 -98 155
0 5 20 20 45 35 52 31 101 95 116 152 30 113 -13 256 -98 321 -78 59 -118 67
-395 72 l-248 5 0 -456z m475 242 c55 -29 76 -105 46 -162 -24 -44 -67 -56
-195 -56 l-116 0 0 121 0 121 118 -4 c83 -3 126 -8 147 -20z"/>
<path d="M4630 2385 l0 -455 330 0 330 0 0 100 0 100 -225 0 -225 0 0 80 0 80
195 0 195 0 0 100 0 100 -195 0 -195 0 0 75 0 75 225 0 225 0 0 100 0 100
-330 0 -330 0 0 -455z"/>
<path d="M5450 2385 l0 -457 228 4 c198 4 235 8 294 27 194 63 308 220 308
426 0 218 -121 382 -320 432 -35 9 -139 16 -282 20 l-228 6 0 -458z m487 231
c99 -46 147 -156 125 -285 -13 -79 -51 -137 -112 -171 -40 -22 -59 -25 -167
-28 l-123 -4 0 256 0 256 113 0 c97 0 119 -3 164 -24z"/>
<path d="M6430 2838 c0 -2 -1 -207 -3 -456 l-2 -452 105 0 105 0 -3 455 -2
455 -100 0 c-55 0 -100 -1 -100 -2z"/>
<path d="M6740 2740 l0 -100 130 0 130 0 0 -355 0 -355 105 0 105 0 0 355 0
355 133 0 132 0 -2 97 -1 98 -366 3 -366 2 0 -100z"/>
<path d="M3348 1724 c-64 -20 -149 -99 -178 -166 -33 -74 -33 -192 0 -266 30
-70 114 -146 182 -167 167 -49 345 24 409 168 36 79 34 202 -4 279 -53 109
-157 169 -290 167 -40 0 -93 -7 -119 -15z m179 -115 c38 -14 83 -57 99 -96 18
-41 18 -134 0 -176 -44 -106 -190 -138 -276 -61 -48 44 -63 88 -58 170 3 52 9
70 34 101 52 65 129 89 201 62z"/>
<path d="M6032 1726 c-130 -42 -202 -139 -210 -281 -5 -105 21 -179 88 -245
66 -67 140 -93 246 -88 183 9 306 131 308 303 2 137 -52 235 -159 290 -50 26
-71 30 -144 32 -52 2 -103 -3 -129 -11z m181 -120 c39 -16 82 -61 96 -99 17
-43 13 -127 -8 -173 -59 -131 -247 -137 -313 -10 -32 59 -31 147 2 206 44 78
141 111 223 76z"/>
<path d="M7307 1725 c-88 -31 -123 -93 -119 -204 2 -43 59 -101 122 -124 25
-9 71 -26 103 -38 67 -24 87 -41 87 -74 0 -72 -142 -74 -231 -4 l-37 28 -36
-46 c-20 -25 -36 -50 -36 -55 0 -14 92 -68 144 -83 179 -54 336 28 336 174 0
98 -36 134 -187 187 -109 38 -123 47 -123 80 0 67 118 71 201 6 l25 -20 42 54
42 54 -47 30 c-26 17 -63 35 -83 40 -50 14 -158 12 -203 -5z"/>
<path d="M2610 1425 l0 -305 70 0 70 0 0 100 0 100 78 0 c131 0 200 32 240
110 57 113 -1 258 -116 290 -20 5 -106 10 -189 10 l-153 0 0 -305z m305 162
c21 -17 27 -32 27 -61 0 -61 -27 -80 -117 -84 l-75 -4 0 86 0 86 69 0 c58 0
74 -4 96 -23z"/>
<path d="M3872 1518 c3 -206 4 -215 29 -269 43 -91 123 -139 232 -139 120 0
202 47 246 139 25 54 26 63 29 269 l3 212 -69 0 -70 0 -4 -202 c-3 -191 -4
-205 -26 -240 -36 -57 -102 -73 -159 -38 -57 35 -62 56 -63 279 l-2 201 -75 0
-75 0 4 -212z"/>
<path d="M4520 1425 l0 -305 70 0 70 0 0 105 0 105 48 0 47 0 65 -105 65 -105
84 0 83 0 -18 28 c-9 15 -42 64 -72 110 -30 45 -53 84 -51 85 2 2 19 14 38 27
88 61 95 218 13 303 -42 44 -105 57 -284 57 l-158 0 0 -305z m326 161 c21 -18
28 -32 28 -61 0 -29 -7 -43 -28 -61 -24 -21 -37 -24 -107 -24 l-79 0 0 85 0
85 79 0 c70 0 83 -3 107 -24z"/>
<path d="M5300 1670 l0 -60 85 0 85 0 0 -245 0 -245 75 0 75 0 0 245 0 245 90
0 90 0 0 60 0 60 -250 0 -250 0 0 -60z"/>
<path d="M6560 1524 c0 -231 6 -264 58 -324 47 -55 103 -82 184 -88 116 -8
201 36 254 130 l29 53 3 218 4 217 -71 0 -71 0 0 -195 c0 -213 -7 -249 -54
-280 -41 -27 -96 -29 -134 -5 -55 34 -62 65 -62 285 l0 195 -70 0 -70 0 0
-206z"/>
</g>
</svg>
